<svg xmlns="http://www.w3.org/2000/svg" width="32" height="32" viewBox="-58 0 216 216">
  <path
     d="M 65.254098,48.746708 C 57.883648,39.924454 51.536124,30.96443 50.239571,29.103446 c -0.136815,-0.137928 -0.340437,-0.137928 -0.477251,0 -1.296555,1.860984 -7.644079,10.821008 -15.014547,19.643262 -63.263711,81.398422 9.963566,136.330722 9.963566,136.330722 l 0.614064,0.4136 c 0.547256,8.47769 1.912217,20.67797 1.912217,20.67797 h 2.729922 2.729911 c 0,0 1.36496,-12.13188 1.910627,-20.67797 l 0.614064,-0.48202 c 0.06836,0.0684 73.295686,-54.86388 10.031954,-136.262302 z M 49.967542,183.90655 c 0,0 -3.277178,-2.82696 -4.16329,-4.27305 v -0.13839 L 49.76232,90.859076 c 0,-0.275696 0.408844,-0.275696 0.408844,0 l 3.958067,88.636034 v 0.13839 c -0.886121,1.44609 -4.161689,4.27305 -4.161689,4.27305 z"
     fill="#00684a"
     style="stroke-width:1.59087" />
</svg>
