<?xml version="1.0" encoding="UTF-8" standalone="no"?>
<svg
   xmlns:dc="http://purl.org/dc/elements/1.1/"
   xmlns:cc="http://creativecommons.org/ns#"
   xmlns:rdf="http://www.w3.org/1999/02/22-rdf-syntax-ns#"
   xmlns:svg="http://www.w3.org/2000/svg"
   xmlns="http://www.w3.org/2000/svg"
   xmlns:sodipodi="http://sodipodi.sourceforge.net/DTD/sodipodi-0.dtd"
   width="100"
   height="216"
   viewBox="0 0 100 216"
   fill="none"
   version="1.1"
   id="svg22"
   sodipodi:docname="logo.svg"
   shape-rendering="crispEdges"
  <metadata
     id="metadata28">
    <rdf:RDF>
      <cc:Work
         rdf:about="">
        <dc:format>image/svg+xml</dc:format>
        <dc:type
           rdf:resource="http://purl.org/dc/dcmitype/StillImage" />
        <dc:title></dc:title>
      </cc:Work>
    </rdf:RDF>
  </metadata>
  <defs
     id="defs26" />
  <sodipodi:namedview
     pagecolor="#ffffff"
     bordercolor="#666666"
     borderopacity="1"
     objecttolerance="10"
     gridtolerance="10"
     guidetolerance="10"
     id="namedview24"
     showgrid="false"
     borderlayer="false"
  <path
     d="M 65.254098,48.746708 C 57.883648,39.924454 51.536124,30.96443 50.239571,29.103446 c -0.136815,-0.137928 -0.340437,-0.137928 -0.477251,0 -1.296555,1.860984 -7.644079,10.821008 -15.014547,19.643262 -63.263711,81.398422 9.963566,136.330722 9.963566,136.330722 l 0.614064,0.4136 c 0.547256,8.47769 1.912217,20.67797 1.912217,20.67797 h 2.729922 2.729911 c 0,0 1.36496,-12.13188 1.910627,-20.67797 l 0.614064,-0.48202 c 0.06836,0.0684 73.295686,-54.86388 10.031954,-136.262302 z M 49.967542,183.90655 c 0,0 -3.277178,-2.82696 -4.16329,-4.27305 v -0.13839 L 49.76232,90.859076 c 0,-0.275696 0.408844,-0.275696 0.408844,0 l 3.958067,88.636034 v 0.13839 c -0.886121,1.44609 -4.161689,4.27305 -4.161689,4.27305 z"
     fill="#00684a"
     id="path16"
     style="stroke-width:1.59087" />
</svg>
